# xmcd
#
# Track frame offsets:
#	150
#	17812
#	36642
#	55582
#
# Disc length: 962 seconds
#
# Revision: 0
# Processed by: cddbd v1.5.1PL0 Copyright (c) Steve Scherf et al.
# Submitted via: dBpowerAMP V4.0
#
DISCID=2e03c004
DTITLE=Des'Ree - Little Child (UK Single)
DYEAR=1994
DGENRE=Pop
TTITLE0=Little Child
TTITLE1=Looking Philosophical
TTITLE2=Caring World
TTITLE3=Competitive World
EXTD=
EXTT0=
EXTT1=
EXTT2=
EXTT3=
PLAYORDER=
